<mxfile host="app.diagrams.net" agent="Mozilla/5.0 (X11; Linux x86_64; rv:135.0) Gecko/20100101 Firefox/135.0" version="26.0.16">
  <diagram name="Page-1" id="Jy3rcE7uvyZ2h_moDESa">
    <mxGraphModel dx="1434" dy="794" grid="1" gridSize="10" guides="1" tooltips="1" connect="1" arrows="1" fold="1" page="1" pageScale="1" pageWidth="1100" pageHeight="850" math="0" shadow="0">
      <root>
        <mxCell id="0" />
        <mxCell id="1" parent="0" />
        <mxCell id="JW42yIoBJT2Nmwy6naQi-1" value="Ecommerce SIte" style="ellipse;whiteSpace=wrap;html=1;aspect=fixed;" vertex="1" parent="1">
          <mxGeometry x="485" y="275" width="130" height="130" as="geometry" />
        </mxCell>
        <mxCell id="JW42yIoBJT2Nmwy6naQi-2" value="Admin" style="rounded=0;whiteSpace=wrap;html=1;" vertex="1" parent="1">
          <mxGeometry x="850" y="310" width="120" height="60" as="geometry" />
        </mxCell>
        <mxCell id="JW42yIoBJT2Nmwy6naQi-3" value="Customer" style="rounded=0;whiteSpace=wrap;html=1;" vertex="1" parent="1">
          <mxGeometry x="90" y="310" width="120" height="60" as="geometry" />
        </mxCell>
        <mxCell id="JW42yIoBJT2Nmwy6naQi-4" value="" style="endArrow=classic;html=1;rounded=0;exitX=0.5;exitY=1;exitDx=0;exitDy=0;entryX=0.5;entryY=1;entryDx=0;entryDy=0;" edge="1" parent="1" source="JW42yIoBJT2Nmwy6naQi-3" target="JW42yIoBJT2Nmwy6naQi-1">
          <mxGeometry width="50" height="50" relative="1" as="geometry">
            <mxPoint x="190" y="480" as="sourcePoint" />
            <mxPoint x="240" y="430" as="targetPoint" />
            <Array as="points">
              <mxPoint x="150" y="520" />
              <mxPoint x="550" y="520" />
            </Array>
          </mxGeometry>
        </mxCell>
        <mxCell id="JW42yIoBJT2Nmwy6naQi-5" value="View Item" style="edgeLabel;html=1;align=center;verticalAlign=middle;resizable=0;points=[];" vertex="1" connectable="0" parent="JW42yIoBJT2Nmwy6naQi-4">
          <mxGeometry x="0.0316" y="-3" relative="1" as="geometry">
            <mxPoint as="offset" />
          </mxGeometry>
        </mxCell>
        <mxCell id="JW42yIoBJT2Nmwy6naQi-6" value="" style="endArrow=classic;html=1;rounded=0;exitX=0.75;exitY=1;exitDx=0;exitDy=0;entryX=0;entryY=1;entryDx=0;entryDy=0;" edge="1" parent="1" source="JW42yIoBJT2Nmwy6naQi-3" target="JW42yIoBJT2Nmwy6naQi-1">
          <mxGeometry width="50" height="50" relative="1" as="geometry">
            <mxPoint x="290" y="490" as="sourcePoint" />
            <mxPoint x="340" y="440" as="targetPoint" />
            <Array as="points">
              <mxPoint x="180" y="480" />
              <mxPoint x="504" y="480" />
            </Array>
          </mxGeometry>
        </mxCell>
        <mxCell id="JW42yIoBJT2Nmwy6naQi-7" value="Add Item" style="edgeLabel;html=1;align=center;verticalAlign=middle;resizable=0;points=[];" vertex="1" connectable="0" parent="JW42yIoBJT2Nmwy6naQi-6">
          <mxGeometry x="0.0113" relative="1" as="geometry">
            <mxPoint as="offset" />
          </mxGeometry>
        </mxCell>
        <mxCell id="JW42yIoBJT2Nmwy6naQi-8" value="" style="endArrow=classic;html=1;rounded=0;exitX=0.25;exitY=1;exitDx=0;exitDy=0;entryX=1;entryY=1;entryDx=0;entryDy=0;" edge="1" parent="1" source="JW42yIoBJT2Nmwy6naQi-3" target="JW42yIoBJT2Nmwy6naQi-1">
          <mxGeometry width="50" height="50" relative="1" as="geometry">
            <mxPoint x="160" y="380" as="sourcePoint" />
            <mxPoint x="560" y="415" as="targetPoint" />
            <Array as="points">
              <mxPoint x="120" y="560" />
              <mxPoint x="596" y="560" />
            </Array>
          </mxGeometry>
        </mxCell>
        <mxCell id="JW42yIoBJT2Nmwy6naQi-9" value="&lt;div&gt;Browse Item&lt;/div&gt;" style="edgeLabel;html=1;align=center;verticalAlign=middle;resizable=0;points=[];" vertex="1" connectable="0" parent="JW42yIoBJT2Nmwy6naQi-8">
          <mxGeometry x="0.0316" y="-3" relative="1" as="geometry">
            <mxPoint as="offset" />
          </mxGeometry>
        </mxCell>
        <mxCell id="JW42yIoBJT2Nmwy6naQi-12" value="" style="endArrow=classic;html=1;rounded=0;entryX=0.25;entryY=0;entryDx=0;entryDy=0;exitX=1;exitY=0;exitDx=0;exitDy=0;" edge="1" parent="1" source="JW42yIoBJT2Nmwy6naQi-1" target="JW42yIoBJT2Nmwy6naQi-3">
          <mxGeometry width="50" height="50" relative="1" as="geometry">
            <mxPoint x="290" y="280" as="sourcePoint" />
            <mxPoint x="340" y="230" as="targetPoint" />
            <Array as="points">
              <mxPoint x="596" y="120" />
              <mxPoint x="120" y="120" />
            </Array>
          </mxGeometry>
        </mxCell>
        <mxCell id="JW42yIoBJT2Nmwy6naQi-13" value="Users List" style="edgeLabel;html=1;align=center;verticalAlign=middle;resizable=0;points=[];" vertex="1" connectable="0" parent="JW42yIoBJT2Nmwy6naQi-12">
          <mxGeometry x="0.0154" y="1" relative="1" as="geometry">
            <mxPoint as="offset" />
          </mxGeometry>
        </mxCell>
      </root>
    </mxGraphModel>
  </diagram>
</mxfile>
